<?xml version="1.0" encoding="UTF-8"?>
<svg xmlns="http://www.w3.org/2000/svg" xmlns:xlink="http://www.w3.org/1999/xlink" width="25px" height="25px" viewBox="0 0 25 25" version="1.1">
<g id="surface1">
<path style=" stroke:none;fill-rule:nonzero;fill:rgb(0%,0%,0%);fill-opacity:1;" d="M 1.527344 0.0742188 C 0.78125 0.277344 0.269531 0.789062 0.0742188 1.539062 C 0.0078125 1.792969 0 2.914062 0 10.984375 C 0 20.875 -0.0078125 20.394531 0.25 20.90625 C 0.390625 21.191406 0.738281 21.542969 1.015625 21.695312 C 1.558594 21.988281 0.972656 21.972656 10.984375 21.972656 C 21 21.972656 20.414062 21.988281 20.957031 21.695312 C 21.234375 21.542969 21.582031 21.191406 21.722656 20.90625 C 21.984375 20.398438 21.972656 20.6875 21.972656 13.132812 L 21.972656 6.128906 L 21.859375 5.898438 C 21.78125 5.734375 21.125 5.035156 19.410156 3.300781 C 18.125 1.996094 17.054688 0.929688 17.03125 0.929688 C 17.011719 0.929688 16.992188 1.636719 16.984375 2.5 L 16.96875 4.078125 L 16.8125 4.40625 C 16.617188 4.8125 16.289062 5.140625 15.867188 5.34375 L 15.550781 5.492188 L 6.421875 5.492188 L 6.101562 5.34375 C 5.683594 5.140625 5.355469 4.8125 5.160156 4.40625 L 5.003906 4.078125 L 4.992188 2.035156 L 4.976562 0 L 3.378906 0.00390625 C 2.164062 0.00390625 1.71875 0.0234375 1.527344 0.0742188 Z M 17.578125 10.0625 C 17.933594 10.140625 18.257812 10.375 18.40625 10.667969 L 18.53125 10.90625 L 18.546875 14.203125 C 18.558594 17.789062 18.5625 17.726562 18.285156 18.085938 C 18.210938 18.179688 18.042969 18.3125 17.90625 18.382812 L 17.65625 18.507812 L 4.316406 18.507812 L 4.066406 18.382812 C 3.929688 18.3125 3.757812 18.179688 3.6875 18.085938 C 3.40625 17.726562 3.414062 17.789062 3.429688 14.203125 L 3.441406 10.90625 L 3.570312 10.667969 C 3.710938 10.386719 3.988281 10.171875 4.332031 10.078125 C 4.644531 9.996094 17.1875 9.980469 17.578125 10.0625 Z M 17.578125 10.0625 "/>
<path style=" stroke:none;fill-rule:nonzero;fill:rgb(0%,0%,0%);fill-opacity:1;" d="M 5.699219 11.984375 C 5.472656 12.066406 5.386719 12.140625 5.292969 12.308594 C 5.125 12.636719 5.257812 13.085938 5.578125 13.28125 C 5.734375 13.378906 5.835938 13.378906 10.984375 13.378906 C 16.136719 13.378906 16.242188 13.378906 16.398438 13.28125 C 16.855469 13 16.859375 12.304688 16.40625 12.035156 C 16.234375 11.9375 16.167969 11.9375 11.058594 11.929688 C 6.816406 11.917969 5.851562 11.929688 5.699219 11.984375 Z M 5.699219 11.984375 "/>
<path style=" stroke:none;fill-rule:nonzero;fill:rgb(0%,0%,0%);fill-opacity:1;" d="M 7.164062 14.914062 C 6.933594 14.996094 6.851562 15.070312 6.753906 15.25 C 6.640625 15.464844 6.6875 15.882812 6.839844 16.046875 C 7.09375 16.320312 6.914062 16.308594 10.984375 16.308594 C 15.0625 16.308594 14.875 16.320312 15.132812 16.046875 C 15.226562 15.945312 15.257812 15.851562 15.269531 15.632812 C 15.292969 15.308594 15.1875 15.097656 14.929688 14.957031 C 14.78125 14.875 14.527344 14.867188 11.058594 14.859375 C 8.042969 14.847656 7.3125 14.859375 7.164062 14.914062 Z M 7.164062 14.914062 "/>
<path style=" stroke:none;fill-rule:nonzero;fill:rgb(0%,0%,0%);fill-opacity:1;" d="M 6.445312 1.882812 L 6.445312 3.769531 L 6.585938 3.910156 L 6.726562 4.054688 L 15.242188 4.054688 L 15.527344 3.769531 L 15.527344 0 L 6.445312 0 Z M 6.445312 1.882812 "/>
</g>
</svg>
